<svg xmlns="http://www.w3.org/2000/svg" width="260" height="42" viewBox="0 0 260 42"><g><g><g/><g><g><path fill="#fff" d="M31.848 37.99a19.793 19.793 0 0 1-10.339 2.9c-10.992 0-19.932-8.948-19.932-19.944C1.577 9.948 10.517 1 21.509 1c3.867 0 7.48 1.108 10.54 3.023l-3.093 5.339a13.739 13.739 0 0 1 6.383 11.613 13.74 13.74 0 0 1-6.455 11.658zM13.45 9.902a13.7 13.7 0 0 1 3.573-1.896c-5.35 1.862-9.2 6.959-9.2 12.939 0 2.614.737 5.06 2.012 7.14a13.664 13.664 0 0 1-1.721-4.452c1.164 5.825 6.035 10.33 12.039 10.934a19.325 19.325 0 0 0 2.118.049l.124-.008.129-.008c.071-.005.144-.011.215-.018.069-.006.14-.012.208-.02 2.081-.208 4.173-.874 5.926-1.947l-.047-.086-2.215-4.004c-1.45.928-3.356 1.418-5.078 1.418-4.96 0-8.995-4.037-8.995-8.998 0-4.964 4.036-9 8.995-9 1.734 0 3.538.497 4.99 1.438l2.39-3.957.035-.06a14.072 14.072 0 0 0-4.545-1.81l-.279-.055-.017-.003a23.574 23.574 0 0 0-.127-.024l-.095-.017a7.264 7.264 0 0 1-.042-.007zm10.347-2.46l-.121-.019a14.357 14.357 0 0 0-1.353-.149c-.103-.005-.203-.01-.305-.013h-.004a13.604 13.604 0 0 0-8.564 2.641zM20 20.824h-.116c-.089-.002-.174-.003-.259.002-.08.005-.115-.021-.143-.099-.413-1.101-.829-2.2-1.246-3.3h2.74v7.424h-1.013l-.231.201.354.41.043.048h2.818l.042-.049.355-.409-.232-.201h-.93v-7.424h2.839l-.456 1.208a2623.893 2623.893 0 0 1-.828 2.19h-.473c.218.722.969 1.443 1.959 1.502a2.23 2.23 0 0 0 2.258-1.503l-.117-.001c-.088-.001-.173-.002-.257.003-.081.005-.115-.021-.144-.099a775.745 775.745 0 0 0-1.366-3.618.387.387 0 0 0-.115-.173.18.18 0 0 0-.18-.028l-.138-.209h-7.17l-.13.198c-.082.01-.156.08-.199.195l-.092.245-.06.09h.026l-.454 1.205v.001l-.003.005c-.236.628-.472 1.255-.71 1.882-.037.102-.077.204-.116.305h-.474c.218.722.97 1.443 1.959 1.502A2.23 2.23 0 0 0 20 20.823zm-2.071-3.003v.003l1.13 2.994h-2.34l1.17-3.102zm6.785 1.637l.657-1.742.98 2.599.009.024.004.01.003.01.003.006.17.453H24.2l.508-1.344z"/></g></g><g><g><g><path fill="#fff" d="M153.958 16.849l1.054 3.241h3.405l-2.755 2.004 1.052 3.242-2.756-2.005-2.756 2.005 1.054-3.242-2.756-2.004h3.406z"/></g></g><g><g><g><g><path fill="#fff" d="M52.513 10.774c-1.9 0-3.67.462-5.312 1.385-3.417 1.918-5.125 4.875-5.125 8.871 0 3.046.97 5.529 2.91 7.447 1.938 1.918 4.43 2.877 7.473 2.877 1.758 0 3.312-.31 4.66-.932 1.217-.568 2.499-1.51 3.848-2.825l-2.53-2.636c-.958.953-1.844 1.645-2.66 2.074-.975.5-2.06.748-3.258.748-1.268 0-2.42-.288-3.456-.866-2.174-1.21-3.26-3.168-3.26-5.874 0-1.885.638-3.467 1.916-4.745 1.275-1.276 2.854-1.914 4.733-1.914 2.217 0 4.211.942 5.985 2.824l2.61-2.491c-2.255-2.628-5.1-3.943-8.534-3.943z"/></g></g></g></g><g><g><g><g><path fill="#fff" d="M76.324 28.433H72.69V26.9c-1.338 1.27-2.823 1.903-4.454 1.903-2.003 0-3.67-.772-5-2.317-1.268-1.483-1.901-3.241-1.901-5.275 0-2.086.602-3.86 1.809-5.315 1.284-1.554 2.947-2.33 4.985-2.33 1.746 0 3.266.657 4.561 1.97v-1.599h3.634zm-3.46-7.275c0-1.212-.363-2.22-1.088-3.02-.726-.801-1.69-1.203-2.893-1.203-1.175 0-2.132.417-2.866 1.249-.7.796-1.048 1.792-1.048 2.988 0 1.187.353 2.188 1.061 3 .744.86 1.7 1.288 2.866 1.288 1.203 0 2.176-.42 2.92-1.26.698-.807 1.047-1.82 1.047-3.042z"/></g></g><g><g><path fill="#fff" d="M94.99 21.212c0 2.034-.634 3.791-1.902 5.275-1.33 1.545-2.996 2.317-5 2.317-1.64 0-3.13-.634-4.467-1.904v6.833H80V13.938h3.621v1.6c1.311-1.314 2.836-1.972 4.574-1.972 2.038 0 3.7.778 4.986 2.33 1.206 1.457 1.809 3.23 1.809 5.316zm-3.634-.04c0-1.196-.355-2.19-1.061-2.988-.727-.832-1.681-1.249-2.866-1.249-1.196 0-2.165.408-2.907 1.223-.709.788-1.061 1.789-1.061 3 0 1.222.348 2.236 1.048 3.041.744.842 1.716 1.261 2.92 1.261 1.166 0 2.121-.429 2.866-1.287.706-.814 1.06-1.815 1.06-3.001z"/></g></g><g><g><path fill="#fff" d="M104.215 13.938h-2.143v-5.34h-3.634v5.34h-1.864v3.144h1.864v11.35h3.634v-11.35h2.143z"/></g></g><g><g><path fill="#fff" d="M120.498 28.433h-3.635V26.9c-1.34 1.27-2.823 1.903-4.455 1.903-2.004 0-3.671-.772-5-2.317-1.267-1.483-1.902-3.241-1.902-5.275 0-2.086.604-3.86 1.809-5.315 1.286-1.554 2.947-2.33 4.988-2.33 1.744 0 3.265.657 4.56 1.97v-1.599h3.635zm-3.463-7.275c0-1.212-.362-2.22-1.087-3.02-.726-.801-1.69-1.203-2.892-1.203-1.176 0-2.132.417-2.868 1.249-.697.796-1.047 1.792-1.047 2.988 0 1.187.354 2.188 1.061 3 .744.86 1.7 1.288 2.866 1.288 1.203 0 2.177-.42 2.92-1.26.699-.807 1.047-1.82 1.047-3.042z"/></g></g><g><g><path fill="#fff" d="M127.236 8.676a2.223 2.223 0 0 0-1.647-.692c-.637 0-1.18.227-1.633.678a2.225 2.225 0 0 0-.676 1.633c0 .665.224 1.229.676 1.695a2.225 2.225 0 0 0 1.66.697 2.19 2.19 0 0 0 1.626-.685 2.276 2.276 0 0 0 .672-1.652c0-.655-.228-1.213-.678-1.674zm.198 5.262h-3.662v14.493h3.662z"/></g></g><g><g><path fill="#fff" d="M143.554 18.853c0-1.678-.42-2.937-1.262-3.78-.993-1.005-2.211-1.507-3.657-1.507-1.39 0-2.82.617-4.293 1.852v-1.48h-3.635v14.493h3.635v-5.815c0-1.506.053-2.487.16-2.94.433-1.854 1.426-2.78 2.98-2.78.567 0 1.043.146 1.43.438.513.41.836 1.154.968 2.236.045.356.067 1.193.067 2.515v6.346h3.607z"/></g></g></g></g><g><g><g><g><path fill="#fff" d="M174.877 10.774c-1.899 0-3.67.462-5.311 1.385-3.418 1.918-5.126 4.875-5.126 8.871 0 3.046.97 5.529 2.908 7.447 1.94 1.918 4.432 2.877 7.476 2.877 1.758 0 3.31-.31 4.66-.932 1.215-.568 2.498-1.51 3.848-2.825l-2.532-2.636c-.956.953-1.843 1.645-2.658 2.074-.976.5-2.062.748-3.258.748-1.268 0-2.42-.288-3.457-.866-2.174-1.21-3.26-3.168-3.26-5.874 0-1.885.639-3.467 1.917-4.745 1.275-1.276 2.853-1.914 4.732-1.914 2.217 0 4.212.942 5.984 2.824l2.611-2.491c-2.254-2.628-5.1-3.943-8.534-3.943z"/></g></g></g></g><g><g><g><g><path fill="#fff" d="M198.85 21.172a7.65 7.65 0 0 1-1.013 3.836 7.281 7.281 0 0 1-2.776 2.79c-1.177.671-2.469 1.006-3.88 1.006-2.104 0-3.884-.74-5.339-2.218-1.457-1.478-2.184-3.274-2.184-5.388 0-2.273.831-4.16 2.49-5.66 1.447-1.314 3.12-1.973 5.019-1.973a7.7 7.7 0 0 1 3.854 1.02 7.331 7.331 0 0 1 2.816 2.784 7.527 7.527 0 0 1 1.012 3.803zm-3.688.013c0-1.203-.36-2.201-1.076-2.994-.715-.792-1.671-1.189-2.866-1.189-1.166 0-2.122.408-2.865 1.222-.707.788-1.062 1.775-1.062 2.961 0 1.204.35 2.2 1.049 2.988.724.823 1.68 1.235 2.865 1.235 1.186 0 2.144-.412 2.879-1.235.716-.797 1.076-1.793 1.076-2.988z"/></g></g><g><g><path fill="#fff" d="M214.665 18.853c0-1.678-.42-2.937-1.263-3.78-.993-1.005-2.212-1.507-3.657-1.507-1.39 0-2.822.617-4.293 1.852v-1.48h-3.635v14.493h3.635v-5.815c0-1.506.052-2.487.16-2.94.431-1.854 1.425-2.78 2.98-2.78.566 0 1.042.146 1.431.438.512.41.835 1.154.967 2.236.045.356.067 1.193.067 2.515v6.346h3.608z"/></g></g><g><g><path fill="#fff" d="M224.396 13.938h-2.143v-5.34h-3.634v5.34h-1.865v3.144h1.865v11.35h3.634v-11.35h2.143z"/></g></g><g><g><path fill="#fff" d="M232.347 13.566c-1.432 0-2.491.732-3.17 2.197v-1.825h-3.13v14.493h3.62v-5.855l-.012-.704c-.036-1.961.157-3.317.583-4.071.38-.692.848-1.038 1.405-1.038.274 0 .622.106 1.047.319l1.13-3.144c-.512-.247-1.003-.372-1.473-.372z"/></g></g><g><g><path fill="#fff" d="M249.126 28.433h-3.635V26.9c-1.339 1.27-2.824 1.903-4.456 1.903-2.002 0-3.67-.772-4.999-2.317-1.268-1.483-1.9-3.241-1.9-5.275 0-2.086.6-3.86 1.807-5.315 1.285-1.554 2.947-2.33 4.987-2.33 1.745 0 3.267.657 4.56 1.97v-1.599h3.636zm-3.462-7.275c0-1.212-.364-2.22-1.09-3.02-.724-.801-1.689-1.203-2.89-1.203-1.178 0-2.133.417-2.868 1.249-.697.796-1.046 1.792-1.046 2.988 0 1.187.353 2.188 1.06 3 .744.86 1.698 1.288 2.867 1.288 1.202 0 2.175-.42 2.919-1.26.697-.807 1.048-1.82 1.048-3.042z"/></g></g><g><g><path fill="#fff" d="M259.017 13.938h-2.143v-5.34h-3.636v5.34h-1.862v3.144h1.862v11.35h3.636v-11.35h2.143z"/></g></g></g></g></g></g></g></svg>