<svg fill="none" height="173" viewBox="0 0 1076 173" width="1076" xmlns="http://www.w3.org/2000/svg"><path d="m146.138 86.6907c0-31.384-25.439-56.8213-56.82-56.8213-31.3827 0-56.8214 25.4373-56.8214 56.8213 0 31.3813 25.4387 56.8183 56.8214 56.8183 31.381 0 56.82-25.437 56.82-56.8183z" fill="#e32636"/><path d="m119.408 134.8 12.296 22.212c-12.476 7.604-27.111 11.988-42.7551 11.988-45.456 0-82.42931-36.98-82.42931-82.4307 0-45.4546 36.97331-82.43596 82.42931-82.43596 15.9921 0 30.9311 4.57733 43.5841 12.49466l-12.948 22.3413c-.007-.0026-.009-.0026-.015-.0093-5.246-3.388-11.08-5.9213-17.305-7.4213-.445-.1107-.899-.2094-1.344-.3014-.405-.0906-.82-.168-1.2254-.244-.308-.06-.6147-.1133-.9187-.1666-.284-.052-.5733-.1-.8613-.144-.856-.1414-1.7213-.2587-2.5907-.3507-.3866-.0467-.776-.0853-1.164-.12-.6106-.0587-1.228-.1027-1.8426-.1413-.4201-.0254-.8374-.0454-1.2587-.06h-.0147c-.6973-.0227-1.3933-.0387-2.096-.0387-31.2026 0-56.592 25.3893-56.592 56.5973 0 29.3137 22.4027 53.4837 50.9894 56.3027.008 0 .0226 0 .0373.005.9213.092 1.848.163 2.7867.206.4733.025.9493.045 1.4266.054.4814.012.9694.02 1.456.02.3347 0 .6614-.008.9974-.009.6893-.016 1.3706-.04 2.0519-.075.3494-.02.6974-.045 1.0441-.07.3013-.018.5986-.042.8946-.071.2827-.025.5734-.049.8573-.084 8.8658-.908 17.1398-3.851 24.3138-8.401z" fill="#232b2b"/><path d="m51.8568 86.5689c0 20.5081 16.688 37.1921 37.1946 37.1921 7.1214 0 15.0066-2.025 20.9996-5.86l9.16 16.547.196.354c-7.252 4.436-15.901 7.188-24.5076 8.046-.284.034-.5746.06-.8586.084-.2947.029-.596.054-.892.074-.348.022-.6987.046-1.0454.067-.6826.033-1.3653.059-2.056.075-.332.005-.6626.009-.996.009-.4853 0-.976-.004-1.4573-.021-.4747-.011-.948-.03-1.4253-.052-.936-.05-1.8614-.12-2.784-.207-.0174-.005-.0307-.005-.04-.005-28.532-2.874-50.88-27.031-50.88-56.3031 0-31.204 25.384-56.592 56.5866-56.592.664 0 1.3294.0094 1.992.036h.016c.4214.012.8347.0334 1.2614.056.612.0414 1.228.084 1.844.1427.384.0347.772.0747 1.1613.1187.8613.0973 1.7267.2173 2.5867.3533.292.044.5786.0947.8653.14.3027.056.612.1107.9173.168.4066.0787.8156.1573 1.2256.244.445.0947.896.1947 1.344.3013 6.19 1.4534 12.186 3.888 17.452 7.18l-.147.244-9.881 16.3547c-6.007-3.8893-13.4656-5.9453-20.6376-5.9453-20.5066 0-37.1946 16.6853-37.1946 37.1986z" fill="#fff"/><path d="m82.7064 86.0631c-.984 3.108-4.384 6.504-9.3414 6.212-4.092-.2427-7.1986-3.2254-8.1013-6.2067h1.9587c.164-.4187.328-.8387.4853-1.2613 1.7827-4.72 3.5613-9.444 5.344-14.1667.276-.736.8627-1.028 1.388-.6453.2173.1586.3733.452.4747.7146 1.8933 4.98 3.776 9.9627 5.6493 14.952.1173.3214.26.4294.5947.4094.5013-.0294 1.0053-.008 1.548-.008zm-8.7294-12.844c-1.6306 4.3213-3.2306 8.5613-4.8373 12.82h9.676c-1.6107-4.2694-3.2093-8.504-4.8387-12.82z" fill="#fff"/><path d="m113.645 86.0631c-.986 3.108-4.384 6.504-9.339 6.212-4.095-.2427-7.2001-3.2254-8.1015-6.2067h1.9574c.164-.4187.328-.8387.4866-1.2613 1.7825-4.72 3.5615-9.444 5.3445-14.1667.276-.736.861-1.028 1.385-.6453.219.1586.375.452.475.7146 1.894 4.98 3.78 9.9627 5.649 14.952.119.3214.26.4294.596.4094.501-.032 1.007-.008 1.547-.008zm-8.727-12.8467c-1.633 4.324-3.232 8.564-4.84 12.8227h9.677c-1.612-4.2694-3.212-8.504-4.837-12.8227z" fill="#fff"/><path d="m86.7453 104.452h4.9867v-32.9324h-4.9867z" fill="#fff"/><path clip-rule="evenodd" d="m81.5985 103.538 1.4677 1.691.1751.202h.3337 10.9864.3338l.175-.202 1.4678-1.691-.959-.832h-13.0216z" fill="#fff" fill-rule="evenodd"/><path d="m106.052 72.0226h-33.6266l1.988-3.008h29.6516z" fill="#fff"/><path d="m636.677 69.6385 4.359 13.396h14.08l-11.395 8.2826 4.353 13.3969-11.397-8.2849-11.397 8.2849 4.356-13.3969-11.396-8.2826h14.085z" fill="#e29300"/><path d="m217.163 44.5285c-7.855 0-15.178 1.9107-21.967 5.7253-14.132 7.9294-21.196 20.1507-21.196 36.6667 0 12.588 4.008 22.8485 12.031 30.7775 8.018 7.928 18.321 11.891 30.909 11.891 7.267 0 13.693-1.283 19.272-3.851 5.028-2.348 10.331-6.24 15.909-11.676l-10.461-10.895c-3.961 3.936-7.628 6.796-10.999 8.572-4.033 2.062-8.524 3.092-13.473 3.092-5.244 0-10.011-1.192-14.295-3.582-8.989-4.999-13.48-13.0925-13.48-24.2752 0-7.7933 2.64-14.3293 7.923-19.6106 5.275-5.2747 11.803-7.9134 19.575-7.9134 9.168 0 17.414 3.892 24.749 11.6707l10.792-10.2947c-9.323-10.8613-21.088-16.2973-35.289-16.2973z" fill="#232b2b"/><path d="m315.63 57.6085h-15.028v6.608c-5.355-5.4267-11.641-8.1454-18.861-8.1454-8.43 0-15.308 3.208-20.618 9.6307-4.99 6.0187-7.48 13.3467-7.48 21.9693 0 8.4067 2.616 15.6719 7.863 21.7999 5.499 6.387 12.392 9.579 20.677 9.579 6.743 0 12.884-2.619 18.419-7.867v6.332h15.028zm-18.641 42.4105c-3.078 3.476-7.102 5.209-12.078 5.209-4.825 0-8.777-1.77-11.85-5.3195-2.931-3.3614-4.391-7.4987-4.391-12.4014 0-4.9426 1.444-9.0613 4.336-12.352 3.033-3.4386 6.992-5.16 11.853-5.16 4.97 0 8.962 1.6587 11.963 4.9707 2.996 3.3093 4.496 7.472 4.496 12.484 0 5.048-1.445 9.236-4.329 12.5692z" fill="#232b2b"/><path d="m385.337 65.7024c-5.313-6.4187-12.189-9.6347-20.618-9.6347-7.186 0-13.492 2.7213-18.914 8.1493v-6.608h-14.976v81.812h14.976v-28.243c5.53 5.252 11.692 7.872 18.47 7.872 8.29 0 15.178-3.192 20.678-9.578 5.246-6.131 7.866-13.395 7.866-21.8003 0-8.6227-2.491-15.9507-7.482-21.9693zm-11.934 34.2066c-3.078 3.548-7.028 5.32-11.851 5.32-4.979 0-9-1.733-12.075-5.211-2.893-3.3276-4.334-7.5196-4.334-12.5676 0-5.0094 1.457-9.144 4.389-12.4 3.069-3.3707 7.076-5.056 12.02-5.056 4.9 0 8.847 1.7226 11.851 5.1613 2.922 3.2973 4.388 7.4067 4.388 12.3493 0 4.904-1.466 9.0414-4.388 12.404z" fill="#232b2b"/><path d="m430.97 57.6085h-8.863v-22.076h-15.029v22.076h-7.708v12.9946h7.708v46.9119h15.029v-46.9119h8.863z" fill="#232b2b"/><path d="m498.303 57.6085h-15.03v6.608c-5.355-5.4267-11.644-8.1454-18.859-8.1454-8.44 0-15.309 3.208-20.627 9.6307-4.981 6.0187-7.478 13.3467-7.478 21.9693 0 8.4067 2.625 15.6719 7.861 21.7999 5.499 6.387 12.395 9.579 20.68 9.579 6.748 0 12.885-2.619 18.423-7.867v6.332h15.03zm-18.652 42.4105c-3.07 3.476-7.098 5.209-12.072 5.209-4.824 0-8.774-1.77-11.85-5.3195-2.927-3.3614-4.39-7.4987-4.39-12.4014 0-4.9426 1.447-9.0613 4.332-12.352 3.04-3.4386 6.994-5.16 11.858-5.16 4.968 0 8.96 1.6587 11.958 4.9707 3 3.3093 4.499 7.472 4.499 12.484 0 5.048-1.443 9.236-4.335 12.5692z" fill="#232b2b"/><path d="m526.171 35.8573c-1.871-1.9026-4.14-2.8573-6.814-2.8573-2.634 0-4.881.9373-6.752 2.8013-1.868 1.8654-2.796 4.12-2.796 6.7494 0 2.7466.928 5.0773 2.796 7.0053 1.871 1.9213 4.155 2.88 6.867 2.88 2.632 0 4.872-.9413 6.721-2.8293 1.848-1.88 2.779-4.164 2.779-6.8294 0-2.7053-.94-5.0146-2.801-6.92zm.816 21.7507h-15.143v59.899h15.143z" fill="#232b2b"/><path d="m593.651 77.9224c0-6.9347-1.739-12.1414-5.22-15.628-4.105-4.148-9.144-6.2267-15.121-6.2267-5.751 0-11.667 2.552-17.755 7.6547v-6.1134h-15.031v59.899h15.031v-24.035c0-6.224.219-10.276.659-12.148 1.792-7.664 5.901-11.492 12.325-11.492 2.347 0 4.313.6027 5.919 1.812 2.117 1.692 3.454 4.768 4 9.2387.186 1.4707.277 4.9333.277 10.3947v26.2296h14.916z" fill="#232b2b"/><g fill="#e32636"><path d="m723.185 44.5285c-7.852 0-15.179 1.9107-21.966 5.7253-14.132 7.9294-21.194 20.1507-21.194 36.6667 0 12.588 4.008 22.8485 12.024 30.7775 8.026 7.928 18.328 11.891 30.916 11.891 7.269 0 13.689-1.283 19.274-3.851 5.022-2.348 10.327-6.24 15.91-11.676l-10.47-10.895c-3.953 3.936-7.622 6.796-10.994 8.572-4.035 2.062-8.526 3.092-13.472 3.092-5.243 0-10.01-1.192-14.296-3.582-8.99-4.999-13.478-13.0925-13.478-24.2752 0-7.7933 2.639-14.3293 7.923-19.6106 5.276-5.2747 11.8-7.9134 19.571-7.9134 9.169 0 17.416 3.892 24.746 11.6707l10.798-10.2947c-9.324-10.8613-21.091-16.2973-35.292-16.2973z"/><path d="m818.13 71.7876c-2.787-4.8614-6.669-8.704-11.643-11.5054-4.972-2.8106-10.28-4.2146-15.938-4.2146-7.854 0-14.772 2.7213-20.754 8.1493-6.861 6.2053-10.298 14.0013-10.298 23.396 0 8.7387 3.008 16.1591 9.033 22.2681 6.015 6.112 13.375 9.169 22.073 9.169 5.84 0 11.183-1.385 16.048-4.157 4.864-2.772 8.692-6.613 11.479-11.533 2.789-4.9164 4.188-10.2004 4.188-15.8524 0-5.6134-1.399-10.852-4.188-15.72zm-15.511 28.1213c-3.037 3.4011-7.001 5.1041-11.904 5.1041-4.901 0-8.853-1.703-11.85-5.1041-2.888-3.256-4.336-7.3733-4.336-12.3493 0-4.9 1.468-8.9827 4.393-12.2387 3.069-3.364 7.023-5.048 11.845-5.048 4.942 0 8.896 1.64 11.852 4.9133 2.962 3.276 4.451 7.4 4.451 12.3734 0 4.9386-1.489 9.056-4.451 12.3493z"/><path d="m887.721 77.9224c0-6.9347-1.738-12.1414-5.222-15.628-4.106-4.148-9.147-6.2267-15.124-6.2267-5.748 0-11.667 2.552-17.754 7.6547v-6.1134h-15.029v59.899h15.029v-24.035c0-6.224.218-10.276.66-12.148 1.787-7.664 5.896-11.492 12.327-11.492 2.341 0 4.311.6027 5.919 1.812 2.116 1.692 3.453 4.768 4 9.2387.184 1.4707.277 4.9333.277 10.3947v26.2296h14.917z"/><path d="m927.965 57.6085h-8.863v-22.076h-15.029v22.076h-7.71v12.9947h7.71v46.9118h15.029v-46.9118h8.863z"/><path d="m960.846 56.0682c-5.925 0-10.304 3.028-13.114 9.084v-7.544h-12.943v59.8998h14.973v-24.1971l-.049-2.9133c-.151-8.104.649-13.7094 2.408-16.8254 1.575-2.8586 3.509-4.2906 5.811-4.2906 1.136 0 2.574.4386 4.329 1.32l4.677-12.9934c-2.118-1.0213-4.152-1.54-6.092-1.54z"/><path d="m1030.3 57.6085h-15.03v6.608c-5.35-5.4267-11.64-8.1454-18.856-8.1454-8.44 0-15.309 3.208-20.627 9.6307-4.981 6.0187-7.478 13.3467-7.478 21.9693 0 8.4067 2.625 15.6719 7.861 21.7999 5.499 6.387 12.395 9.579 20.68 9.579 6.75 0 12.89-2.619 18.42-7.867v6.332h15.03zm-18.65 42.4105c-3.07 3.476-7.1 5.209-12.071 5.209-4.824 0-8.774-1.77-11.85-5.3195-2.927-3.3614-4.39-7.4987-4.39-12.4014 0-4.9426 1.447-9.0613 4.332-12.352 3.04-3.4386 6.994-5.16 11.858-5.16 4.971 0 8.961 1.6587 11.961 4.9707 3 3.3093 4.5 7.472 4.5 12.484 0 5.048-1.45 9.236-4.34 12.5692z"/><path d="m1071.14 57.6085h-8.87v-22.076h-15.03v22.076h-7.7v12.9947h7.7v46.9118h15.03v-46.9118h8.87z"/></g></svg>