<svg width="512" height="512" viewBox="0 0 512 512" fill="none" xmlns="http://www.w3.org/2000/svg">
<g clip-path="url(#clip0)">
<path fill-rule="evenodd" clip-rule="evenodd" d="M116.93 62.2031L86.6211 40.6484L61.2148 62.2031V155.762L116.93 121.09V62.2031Z" fill="#4D8AC7"/>
<path fill-rule="evenodd" clip-rule="evenodd" d="M126.188 24H51.957C45.5352 24 40.3047 29.2266 40.3047 35.6523V50.5781C40.3047 56.9766 45.5352 62.2031 51.957 62.2031H126.188C132.613 62.2031 137.84 56.9766 137.84 50.5781V35.6523C137.84 29.2266 132.613 24 126.188 24Z" fill="#A9A9B2"/>
<path fill-rule="evenodd" clip-rule="evenodd" d="M226.379 72.8672L48.6875 186.281V450.766L236.164 475.508L404.918 450.766V184.59L226.379 72.8672Z" fill="#FFE2AD"/>
<path fill-rule="evenodd" clip-rule="evenodd" d="M431.812 489H21.8203C11.3086 489 2.69531 480.383 2.69531 469.898C2.69531 459.383 11.3086 450.766 21.8203 450.766H431.812C442.328 450.766 450.941 459.383 450.941 469.898C450.941 480.383 442.328 489 431.812 489Z" fill="#E6E6E6"/>
<path fill-rule="evenodd" clip-rule="evenodd" d="M501.227 489C514.398 489 516.559 468.496 501.723 462.305C491.121 457.864 490.715 460.668 489.664 455.586C487.18 443.551 476.871 434.293 464.637 432.453C457.016 431.313 461.16 432.891 455.469 427.867C443.496 417.262 419.23 411.391 395.02 411.891C370.813 411.391 346.574 417.262 334.602 427.867C328.906 432.891 333.055 431.313 325.434 432.453C313.195 434.293 302.887 443.551 300.406 455.586C299.355 460.668 298.945 457.864 288.348 462.305C273.512 468.496 275.672 489 288.844 489H501.227Z" fill="#4C8F05"/>
<path fill-rule="evenodd" clip-rule="evenodd" d="M342.922 469.051C342.922 447.785 353.699 428.336 371.453 413.41C356.121 415.773 342.602 420.77 334.602 427.867C328.906 432.891 333.051 431.312 325.43 432.453C313.195 434.293 302.887 443.551 300.406 455.586C299.355 460.668 298.945 457.863 288.344 462.305C273.512 468.496 275.672 489 288.84 489H346.164C344.062 482.602 342.922 475.914 342.922 469.051Z" fill="#3F7604"/>
<path fill-rule="evenodd" clip-rule="evenodd" d="M57.8867 35.6523C57.8867 29.2266 63.1406 24 69.5352 24H51.957C45.5352 24 40.3047 29.2266 40.3047 35.6523V50.5781C40.3047 56.9766 45.5352 62.2031 51.957 62.2031H69.5352C67.2578 62.2031 65.1563 61.5625 63.3438 60.4219C60.0742 58.3477 57.8828 54.6992 57.8828 50.5781V35.6523H57.8867Z" fill="#737482"/>
<path fill-rule="evenodd" clip-rule="evenodd" d="M194.055 295.551H122.422C116.027 295.551 110.77 300.781 110.77 307.207V450.766H205.707V307.207C205.703 300.781 200.477 295.551 194.055 295.551Z" fill="#C1D6EB"/>
<path fill-rule="evenodd" clip-rule="evenodd" d="M329.375 295.551H264.984C258.59 295.551 253.332 300.781 253.332 307.207V365.184C253.332 371.609 258.59 376.84 264.984 376.84H329.375C335.797 376.84 341.027 371.609 341.027 365.184V307.207C341.027 300.781 335.797 295.551 329.375 295.551Z" fill="#C1D6EB"/>
<path fill-rule="evenodd" clip-rule="evenodd" d="M254.238 209.301C259.73 193.586 251.465 176.383 235.754 170.891C220.043 165.371 202.844 173.664 197.324 189.379C191.836 205.094 200.129 222.297 215.84 227.789C231.547 233.277 248.719 225.012 254.238 209.301Z" fill="#E32636"/>
<path fill-rule="evenodd" clip-rule="evenodd" d="M405.094 205.504L246.5 106.281C222.848 91.4725 230.117 91.2967 206.668 106.281L48.6875 207.078C9.38282 231 -18.332 183.828 14.6094 163.586L204.801 46.7811C224.16 33.871 229.328 35.828 248.863 46.7811L436.371 163.527C468.898 183.801 444.895 230.387 405.094 205.504Z" fill="#934E11"/>
<path fill-rule="evenodd" clip-rule="evenodd" d="M48.6875 207.078V238.859L215.457 132.449C223.75 127.106 229.445 125.762 237.535 132.449L404.918 237.191V205.387L246.5 106.281C222.848 91.4728 230.117 91.297 206.668 106.281L75.1719 190.168L48.6875 207.078Z" fill="#E29300"/>
<path fill-rule="evenodd" clip-rule="evenodd" d="M264.984 295.551C258.59 295.551 253.332 300.781 253.332 307.207V328.41C253.332 321.984 258.59 316.758 264.984 316.758H329.375C335.797 316.758 341.027 321.984 341.027 328.41V307.207C341.027 300.781 335.797 295.551 329.375 295.551H264.984Z" fill="#73A4D3"/>
<path fill-rule="evenodd" clip-rule="evenodd" d="M122.422 295.551C116.027 295.551 110.77 300.781 110.77 307.207V328.41C110.77 321.984 116.027 316.758 122.422 316.758H194.055C200.477 316.758 205.703 321.984 205.703 328.41V307.207C205.703 300.781 200.477 295.551 194.055 295.551H122.422Z" fill="#73A4D3"/>
<path fill-rule="evenodd" clip-rule="evenodd" d="M78.8242 124.012V84.9883C78.8242 79.3203 83.4648 74.707 89.1328 74.707H116.93V62.2031H61.2148V134.965L78.8242 124.156V124.012Z" fill="#73A4D3"/>
</g>
<defs>
<clipPath id="clip0">
<rect width="512" height="512" fill="white"/>
</clipPath>
</defs>
</svg>
