<svg width="512" height="512" viewBox="0 0 512 512" fill="none" xmlns="http://www.w3.org/2000/svg">
<path d="M488 160H24L256 24L488 160Z" fill="#C4C4CA"/>
<path d="M112.4 136L256 51.8401L399.6 136H112.4Z" fill="#8D8F9A"/>
<path d="M24 456H488V488H24V456Z" fill="#5B5C67"/>
<path d="M48 424H464V456H48V424Z" fill="#8D8F9A"/>
<path d="M72 392H168V424H72V392Z" fill="#C4C4CA"/>
<path d="M88 224H152V392H88V224Z" fill="#8D8F9A"/>
<path d="M72 192H168V224H72V192Z" fill="#C4C4CA"/>
<path d="M48 160H464V192H48V160Z" fill="#8D8F9A"/>
<path d="M208 392H304V424H208V392Z" fill="#C4C4CA"/>
<path d="M224 224H288V392H224V224Z" fill="#8D8F9A"/>
<path d="M208 192H304V224H208V192Z" fill="#C4C4CA"/>
<path d="M344 392H440V424H344V392Z" fill="#C4C4CA"/>
<path d="M360 224H424V392H360V224Z" fill="#8D8F9A"/>
<path d="M344 192H440V224H344V192Z" fill="#C4C4CA"/>
<path d="M256 120C264.837 120 272 112.837 272 104C272 95.1634 264.837 88 256 88C247.163 88 240 95.1634 240 104C240 112.837 247.163 120 256 120Z" fill="#FFAD14"/>
<path d="M112 224H128V392H112V224Z" fill="#5B5C67"/>
<path d="M248 224H264V392H248V224Z" fill="#5B5C67"/>
<path d="M384 224H400V392H384V224Z" fill="#5B5C67"/>
</svg>
